<svg width="65" height="65" viewBox="0 0 65 65" fill="none" xmlns="http://www.w3.org/2000/svg">
<path d="M45.9668 56.3258C50.1659 56.3258 53.5699 52.9162 53.5699 48.7103C53.5699 44.5043 50.1659 41.0947 45.9668 41.0947C41.7678 41.0947 38.3638 44.5043 38.3638 48.7103C38.3638 52.9162 41.7678 56.3258 45.9668 56.3258Z" fill="#624AA7"/>
<path fill-rule="evenodd" clip-rule="evenodd" d="M32.4206 64.9476C50.3262 64.9476 64.8414 50.4088 64.8414 32.4738C64.8414 14.5388 50.3262 0 32.4206 0C14.5152 0 0 14.5388 0 32.4738C0 50.4088 14.5152 64.9476 32.4206 64.9476ZM32.4206 56.5947C19.1209 56.5947 8.33945 45.7957 8.33945 32.4738C8.33945 19.152 19.1209 8.35288 32.4206 8.35288C45.7203 8.35288 56.5019 19.152 56.5019 32.4738C56.5019 36.3433 55.5924 39.9989 53.976 43.2395C55.0387 44.7974 55.6602 46.6815 55.6602 48.7113C55.6602 54.0732 51.3203 58.4195 45.9669 58.4195C43.3196 58.4195 40.9202 57.357 39.1708 55.6336C37.0291 56.2599 34.7639 56.5947 32.4206 56.5947Z" fill="#262626"/>
</svg>
