<svg width="138" height="150" viewBox="0 0 138 150" fill="none" xmlns="http://www.w3.org/2000/svg">
<path d="M6.91788 149.392C9.21955 149.392 11.0068 148.471 12.117 147.198L11.1424 146.277C10.2215 147.361 8.65086 148.038 7.02615 148.038C4.02041 148.038 1.9624 145.871 1.9624 142.676C1.9624 139.534 3.99329 137.313 7.02615 137.313C8.75934 137.313 10.1944 138.045 11.061 139.101L12.0901 138.18C10.8173 136.718 8.86761 135.986 6.97191 135.986C3.15381 135.986 0.5 138.749 0.5 142.703C0.5 146.63 3.12669 149.392 6.91788 149.392ZM15.1708 149.257H16.606V142.811C16.606 139.697 18.3119 137.53 20.9928 137.53C21.2365 137.53 21.5344 137.557 21.8323 137.584V135.986H21.1282C19.0973 135.986 17.5267 137.097 16.6601 138.911H16.606V136.122H15.1708V149.257ZM35.1658 142.351C35.1658 138.695 32.7828 135.986 29.2624 135.986C25.6339 135.986 22.8988 138.776 22.8988 142.676C22.8988 146.602 25.5797 149.392 29.3709 149.392C31.8351 149.392 33.5411 148.417 34.6514 146.928L33.6223 146.061C32.7016 147.252 31.2935 148.038 29.398 148.038C26.5274 148.038 24.4965 146.007 24.3612 143.001H35.1387C35.1658 142.919 35.1658 142.649 35.1658 142.351ZM29.2624 137.313C31.8079 137.313 33.4598 139.128 33.7305 141.809H24.4152C24.7673 139.101 26.7442 137.313 29.2624 137.313ZM44.0477 149.392C46.4578 149.392 48.3262 148.119 49.2199 146.251H49.2742V149.257H50.6552V129.324H49.247V139.128H49.1928C48.2179 137.151 46.2682 135.986 44.0477 135.986C40.2296 135.986 37.5758 138.965 37.5758 142.784C37.5758 146.765 40.4461 149.392 44.0477 149.392ZM44.2102 148.038C41.096 148.038 39.038 145.736 39.038 142.811C39.038 139.48 41.3398 137.313 44.2102 137.313C47.2159 137.313 49.2742 139.751 49.2742 142.811C49.2742 145.953 46.9994 148.038 44.2102 148.038ZM55.8116 133.278C56.4885 133.278 57.0032 132.737 57.0032 132.087C57.0032 131.41 56.4885 130.922 55.8116 130.922C55.1346 130.922 54.6202 131.41 54.6202 132.087C54.6202 132.737 55.1346 133.278 55.8116 133.278ZM55.0535 149.257H56.4885V136.122H55.0535V149.257ZM64.4414 149.392C65.8225 149.392 66.8244 148.931 67.4472 148.552L67.0681 147.252C66.5265 147.605 65.6328 148.011 64.6037 148.011C63.0061 148.011 62.6811 146.982 62.6811 145.167V137.395H67.4743V136.122H62.6811V131.328L61.246 131.491V136.122H59.5128V137.395H61.246V145.546C61.246 147.957 62.0313 149.392 64.4414 149.392ZM77.7211 149.5C81.4038 149.5 84.0848 146.765 84.0848 142.676C84.0848 138.667 81.4038 135.824 77.8294 135.824C76.2047 135.824 74.8236 136.393 73.8217 137.53H73.7945V129.324H70.2472V149.257H73.6051V147.659L73.6591 147.632C74.6069 148.85 75.9339 149.5 77.7211 149.5ZM77.0982 146.305C75.1485 146.305 73.632 144.869 73.632 142.703C73.632 140.563 75.0402 138.993 77.0713 138.993C78.9668 138.993 80.4832 140.428 80.4832 142.703C80.4832 144.815 79.075 146.305 77.0982 146.305ZM87.0434 149.257H90.5909V129.324H87.0434V149.257ZM99.8368 149.5C101.57 149.5 102.897 148.85 103.818 147.659L103.872 147.686V149.257H107.257V136.013H103.709V137.53L103.655 137.557C102.707 136.42 101.299 135.824 99.7556 135.824C96.2081 135.824 93.5274 138.667 93.5274 142.676C93.5274 146.765 96.2081 149.5 99.8368 149.5ZM100.514 146.305C98.51 146.305 97.1289 144.815 97.1289 142.703C97.1289 140.428 98.5911 138.993 100.514 138.993C102.409 138.993 103.872 140.563 103.872 142.703C103.872 144.869 102.328 146.305 100.514 146.305ZM116.721 149.5C119.538 149.5 121.352 148.498 122.489 147.09L120.188 144.869C119.483 145.736 118.427 146.305 117.073 146.305C114.961 146.305 113.499 144.842 113.499 142.649C113.499 140.482 114.934 138.993 117.073 138.993C118.319 138.993 119.402 139.534 120.106 140.401L122.435 138.207C121.054 136.582 118.888 135.824 116.83 135.824C112.741 135.824 109.897 138.586 109.897 142.676C109.897 146.738 112.768 149.5 116.721 149.5ZM124.935 149.257H128.455V145.655L130.243 143.705L133.519 149.257H137.5L132.761 141.322L137.392 136.013H133.221L128.51 141.565H128.455V129.324H124.935V149.257Z" fill="white"/>
<path d="M89.9039 95.6201C97.0061 95.6201 102.763 89.8622 102.763 82.7595C102.763 75.6568 97.0061 69.8989 89.9039 69.8989C82.8018 69.8989 77.0444 75.6568 77.0444 82.7595C77.0444 89.8622 82.8018 95.6201 89.9039 95.6201Z" fill="#7845CE"/>
<path fill-rule="evenodd" clip-rule="evenodd" d="M66.9926 110.179C97.2773 110.179 121.828 85.6266 121.828 55.3395C121.828 25.0525 97.2773 0.5 66.9926 0.5C36.7081 0.5 12.1577 25.0525 12.1577 55.3395C12.1577 85.6266 36.7081 110.179 66.9926 110.179ZM66.9926 96.0729C44.4981 96.0729 26.2627 77.8359 26.2627 55.3395C26.2627 32.8431 44.4981 14.6062 66.9926 14.6062C89.4871 14.6062 107.723 32.8431 107.723 55.3395C107.723 61.8733 106.184 68.0477 103.45 73.5203C105.248 76.1512 106.299 79.3325 106.299 82.7593C106.299 91.8149 98.9587 99.1557 89.9041 99.1557C85.4266 99.1557 81.3684 97.3608 78.4096 94.451C74.7871 95.5069 70.9559 96.0729 66.9926 96.0729Z" fill="white"/>
</svg>
